<mxfile host="app.diagrams.net" modified="2023-08-20T11:19:31.605Z" agent="Mozilla/5.0 (Windows NT 10.0; Win64; x64) AppleWebKit/537.36 (KHTML, like Gecko) Chrome/115.0.0.0 Safari/537.36" version="21.6.8" etag="HFwtVc3lhaVGM0bcSnsU" type="github">
  <diagram name="第 1 页" id="ve5gPd0Sp5OEFZWIcpCB">
    <mxGraphModel>
      <root>
        <mxCell id="0" />
        <mxCell id="1" parent="0" />
      </root>
    </mxGraphModel>
  </diagram>
</mxfile>
